<?xml version="1.0" encoding="utf-8"?>
<!DOCTYPE svg PUBLIC "-//W3C//DTD SVG 1.1//EN" "http://www.w3.org/Graphics/SVG/1.1/DTD/svg11.dtd">
<svg version="1.1" xmlns="http://www.w3.org/2000/svg" xmlns:xlink="http://www.w3.org/1999/xlink" width="16" height="16" viewBox="-4 -4 40 40">
<path d="M30 32h-2v-14q0-0.813-0.594-1.406t-1.406-0.594h-20q-0.844 0-1.422 0.594t-0.578 1.406v14h-2q-0.813 0-1.406-0.594t-0.594-1.406v-28q0-0.813 0.594-1.406t1.406-0.594h26l4 4v26q0 0.813-0.594 1.406t-1.406 0.594zM24 2h-20v8q0 0.844 0.578 1.422t1.422 0.578h16q0.813 0 1.406-0.578t0.594-1.422v-8zM16 4h4v6h-4v-6zM7 18h18q0.406 0 0.703 0.297t0.297 0.703-0.297 0.703-0.703 0.297h-18q-0.406 0-0.703-0.297t-0.297-0.703 0.297-0.703 0.703-0.297zM7 24h18q0.406 0 0.703 0.297t0.297 0.703-0.297 0.703-0.703 0.297h-18q-0.406 0-0.703-0.297t-0.297-0.703 0.297-0.703 0.703-0.297zM7 30h18q0.406 0 0.703 0.297t0.297 0.703-0.297 0.703-0.703 0.297h-18q-0.406 0-0.703-0.297t-0.297-0.703 0.297-0.703 0.703-0.297z"></path>
</svg>
